<?xml version="1.0" encoding="UTF-8" standalone="no"?>
<!-- Created with Inkscape (http://www.inkscape.org/) -->

<svg
   xmlns:dc="http://purl.org/dc/elements/1.1/"
   xmlns:cc="http://creativecommons.org/ns#"
   xmlns:rdf="http://www.w3.org/1999/02/22-rdf-syntax-ns#"
   xmlns:svg="http://www.w3.org/2000/svg"
   xmlns="http://www.w3.org/2000/svg"
   xmlns:sodipodi="http://sodipodi.sourceforge.net/DTD/sodipodi-0.dtd"
   xmlns:inkscape="http://www.inkscape.org/namespaces/inkscape"
   width="512"
   height="512"
   viewBox="0 0 512 512"
   id="svg3336"
   version="1.1"
   inkscape:version="0.91 r13725"
   sodipodi:docname="drawing.svg">
  <defs
     id="defs3338" />
  <sodipodi:namedview
     id="base"
     pagecolor="#6a7f88"
     bordercolor="#666666"
     borderopacity="1.0"
     inkscape:pageopacity="0.70588235"
     inkscape:pageshadow="2"
     inkscape:zoom="0.66"
     inkscape:cx="-14.220779"
     inkscape:cy="280.77922"
     inkscape:document-units="px"
     inkscape:current-layer="layer1"
     showgrid="false"
     units="px"
     showborder="true"
     inkscape:showpageshadow="false"
     inkscape:window-width="1680"
     inkscape:window-height="987"
     inkscape:window-x="1432"
     inkscape:window-y="-8"
     inkscape:window-maximized="1"
     inkscape:snap-global="true" />
  <metadata
     id="metadata3341">
    <rdf:RDF>
      <cc:Work
         rdf:about="">
        <dc:format>image/svg+xml</dc:format>
        <dc:type
           rdf:resource="http://purl.org/dc/dcmitype/StillImage" />
        <dc:title></dc:title>
      </cc:Work>
    </rdf:RDF>
  </metadata>
  <g
     inkscape:label="Layer 1"
     inkscape:groupmode="layer"
     id="layer1"
     transform="translate(0,-540.36216)">
    <path
       style="fill:#c0b283;fill-rule:evenodd;stroke:#000000;stroke-width:0px;stroke-linecap:butt;stroke-linejoin:miter;stroke-opacity:1;fill-opacity:1"
       d="M 320 0 L 320 80 L 0 80 L 0 432 C 0 476.32002 35.68 512 80 512 L 256 512 L 256 432 L 512 432 L 512 80 C 512 35.68 476.32 0 432 0 L 320 0 z "
       id="path4204"
       transform="translate(0,540.36216)" />
    <path
       style="fill:#ffffff;fill-rule:evenodd;stroke:#000000;stroke-width:0px;stroke-linecap:butt;stroke-linejoin:miter;stroke-opacity:1;fill-opacity:1"
       d="M 80 0 C 35.68 0 0 35.68 0 80 L 120 80 L 120 320 L 200 320 L 200 80 L 320 80 L 320 0 L 200 0 L 120 0 L 80 0 z "
       id="rect3350"
       transform="translate(0,540.36216)" />
    <rect
       style="fill:#006400;fill-opacity:1"
       id="rect4173"
       width="3.030303"
       height="21.212122"
       x="698.48486"
       y="493.27124"
       rx="12.5" />
    <path
       style="fill:#fffafa;fill-rule:evenodd;stroke:#000000;stroke-width:0px;stroke-linecap:butt;stroke-linejoin:miter;stroke-opacity:1;fill-opacity:1"
       d="M 256 192 L 256 432 L 256 512 L 336 512 L 432 512 C 476.32 512 512 476.32002 512 432 L 336 432 L 336 192 L 256 192 z "
       id="path4208"
       transform="translate(0,540.36216)" />
  </g>
</svg>
